# xmcd
#
# Track frame offsets: 
#        150
#        1547
#        33735
#        54855
#        63197
#        79020
#        95100
#        110655
#        141232
#        155920
#        173687
#        188772
#        196232
#        212987
#        231705
#        241667
#        252500
#        268100
#        279012
#
# Disc length: 3895 seconds
#
# Revision: 1
# Processed by: cddbd v1.5.1PL2 Copyright (c) Steve Scherf et al.
# Submitted via: ExactAudioCopy v0.95b3
#
DISCID=0b0f3513
DTITLE=Various Artist - ROUTINE JAZZ blue note dj mix by Kei Kobayashi
DYEAR=2002
DGENRE=Jazz
TTITLE0=Introduction for routine jazz
TTITLE1=Horace Silver/Nutzville
TTITLE2=Norman Connors/Samba for maria
TTITLE3=Elza Soares/O que vem de baixo nao me atinge
TTITLE4=Kurt Elling/My love,effendi
TTITLE5=Moacir santos/Off and on
TTITLE6=Duke Pearson/Sandalia dela
TTITLE7=Bobby Hutcherson/Slow change
TTITLE8=Marlena Shaw/Last tango in paris
TTITLE9=Doris/What a lovely way
TTITLE10=Flabby/Manbo italiano
TTITLE11=Greg Osby/Honor the example
TTITLE12=Us3/Recognise and realize
TTITLE13=Lonnie Smith/Move your hand
TTITLE14=Marcos Valle/Os grilos
TTITLE15=Elza soares/Mas que nada
TTITLE16=Lohnny Hartman/Nature boy
TTITLE17=Peggy Lee/I must know
TTITLE18=Richard Groove Holmes/I can't stop dancing
EXTD=
EXTT0=
EXTT1=
EXTT2=
EXTT3=
EXTT4=
EXTT5=
EXTT6=
EXTT7=
EXTT8=
EXTT9=
EXTT10=
EXTT11=
EXTT12=
EXTT13=
EXTT14=
EXTT15=
EXTT16=
EXTT17=
EXTT18=
PLAYORDER=
